<svg xmlns="http://www.w3.org/2000/svg" xmlns:xlink="http://www.w3.org/1999/xlink" width="236" zoomAndPan="magnify" viewBox="0 0 177 60" height="80" preserveAspectRatio="xMidYMid meet" version="1.0"><defs><g/></defs><g fill="#000000" fill-opacity="1"><g transform="translate(10.223068, 35.339015)"><g><path d="M 10.0625 -17.328125 L 17.046875 0 L 12.8125 0 L 11.53125 -3.46875 L 4.9375 -3.46875 L 3.65625 0 L -0.59375 0 L 6.40625 -17.328125 Z M 10.1875 -6.9375 L 8.25 -11.96875 L 8.21875 -11.96875 L 6.28125 -6.9375 Z M 10.1875 -6.9375 "/></g></g></g><g fill="#000000" fill-opacity="1"><g transform="translate(25.04911, 35.339015)"><g><path d="M 5.9375 -11.09375 C 6.550781 -11.09375 7.160156 -11.019531 7.765625 -10.875 C 8.367188 -10.738281 8.816406 -10.597656 9.109375 -10.453125 L 9.5625 -10.25 L 8.34375 -7.8125 C 7.5 -8.257812 6.695312 -8.484375 5.9375 -8.484375 C 5.519531 -8.484375 5.222656 -8.4375 5.046875 -8.34375 C 4.867188 -8.257812 4.78125 -8.085938 4.78125 -7.828125 C 4.78125 -7.773438 4.785156 -7.71875 4.796875 -7.65625 C 4.816406 -7.601562 4.847656 -7.550781 4.890625 -7.5 C 4.929688 -7.457031 4.96875 -7.414062 5 -7.375 C 5.039062 -7.34375 5.101562 -7.304688 5.1875 -7.265625 C 5.269531 -7.222656 5.332031 -7.191406 5.375 -7.171875 C 5.425781 -7.148438 5.507812 -7.117188 5.625 -7.078125 C 5.738281 -7.035156 5.820312 -7.003906 5.875 -6.984375 C 5.9375 -6.960938 6.03125 -6.929688 6.15625 -6.890625 C 6.289062 -6.847656 6.394531 -6.816406 6.46875 -6.796875 C 6.90625 -6.671875 7.28125 -6.53125 7.59375 -6.375 C 7.914062 -6.226562 8.253906 -6.019531 8.609375 -5.75 C 8.972656 -5.488281 9.253906 -5.15625 9.453125 -4.75 C 9.648438 -4.34375 9.75 -3.878906 9.75 -3.359375 C 9.75 -0.910156 8.046875 0.3125 4.640625 0.3125 C 3.867188 0.3125 3.132812 0.191406 2.4375 -0.046875 C 1.75 -0.285156 1.25 -0.519531 0.9375 -0.75 L 0.484375 -1.140625 L 2 -3.671875 C 2.101562 -3.578125 2.242188 -3.460938 2.421875 -3.328125 C 2.609375 -3.191406 2.941406 -3.007812 3.421875 -2.78125 C 3.898438 -2.550781 4.3125 -2.4375 4.65625 -2.4375 C 5.425781 -2.4375 5.8125 -2.695312 5.8125 -3.21875 C 5.8125 -3.445312 5.710938 -3.628906 5.515625 -3.765625 C 5.328125 -3.898438 5 -4.050781 4.53125 -4.21875 C 4.0625 -4.382812 3.691406 -4.539062 3.421875 -4.6875 C 2.753906 -5.03125 2.222656 -5.421875 1.828125 -5.859375 C 1.429688 -6.304688 1.234375 -6.894531 1.234375 -7.625 C 1.234375 -8.71875 1.65625 -9.566406 2.5 -10.171875 C 3.351562 -10.785156 4.5 -11.09375 5.9375 -11.09375 Z M 5.9375 -11.09375 "/></g></g></g><g fill="#000000" fill-opacity="1"><g transform="translate(33.743133, 35.339015)"><g><path d="M 5.9375 -11.09375 C 6.550781 -11.09375 7.160156 -11.019531 7.765625 -10.875 C 8.367188 -10.738281 8.816406 -10.597656 9.109375 -10.453125 L 9.5625 -10.25 L 8.34375 -7.8125 C 7.5 -8.257812 6.695312 -8.484375 5.9375 -8.484375 C 5.519531 -8.484375 5.222656 -8.4375 5.046875 -8.34375 C 4.867188 -8.257812 4.78125 -8.085938 4.78125 -7.828125 C 4.78125 -7.773438 4.785156 -7.71875 4.796875 -7.65625 C 4.816406 -7.601562 4.847656 -7.550781 4.890625 -7.5 C 4.929688 -7.457031 4.96875 -7.414062 5 -7.375 C 5.039062 -7.34375 5.101562 -7.304688 5.1875 -7.265625 C 5.269531 -7.222656 5.332031 -7.191406 5.375 -7.171875 C 5.425781 -7.148438 5.507812 -7.117188 5.625 -7.078125 C 5.738281 -7.035156 5.820312 -7.003906 5.875 -6.984375 C 5.9375 -6.960938 6.03125 -6.929688 6.15625 -6.890625 C 6.289062 -6.847656 6.394531 -6.816406 6.46875 -6.796875 C 6.90625 -6.671875 7.28125 -6.53125 7.59375 -6.375 C 7.914062 -6.226562 8.253906 -6.019531 8.609375 -5.75 C 8.972656 -5.488281 9.253906 -5.15625 9.453125 -4.75 C 9.648438 -4.34375 9.75 -3.878906 9.75 -3.359375 C 9.75 -0.910156 8.046875 0.3125 4.640625 0.3125 C 3.867188 0.3125 3.132812 0.191406 2.4375 -0.046875 C 1.75 -0.285156 1.25 -0.519531 0.9375 -0.75 L 0.484375 -1.140625 L 2 -3.671875 C 2.101562 -3.578125 2.242188 -3.460938 2.421875 -3.328125 C 2.609375 -3.191406 2.941406 -3.007812 3.421875 -2.78125 C 3.898438 -2.550781 4.3125 -2.4375 4.65625 -2.4375 C 5.425781 -2.4375 5.8125 -2.695312 5.8125 -3.21875 C 5.8125 -3.445312 5.710938 -3.628906 5.515625 -3.765625 C 5.328125 -3.898438 5 -4.050781 4.53125 -4.21875 C 4.0625 -4.382812 3.691406 -4.539062 3.421875 -4.6875 C 2.753906 -5.03125 2.222656 -5.421875 1.828125 -5.859375 C 1.429688 -6.304688 1.234375 -6.894531 1.234375 -7.625 C 1.234375 -8.71875 1.65625 -9.566406 2.5 -10.171875 C 3.351562 -10.785156 4.5 -11.09375 5.9375 -11.09375 Z M 5.9375 -11.09375 "/></g></g></g><g fill="#000000" fill-opacity="1"><g transform="translate(42.437155, 35.339015)"><g><path d="M 2.28125 -1.28125 C 1.082031 -2.34375 0.484375 -3.707031 0.484375 -5.375 C 0.484375 -7.039062 1.101562 -8.410156 2.34375 -9.484375 C 3.59375 -10.554688 5.132812 -11.09375 6.96875 -11.09375 C 8.78125 -11.09375 10.300781 -10.550781 11.53125 -9.46875 C 12.769531 -8.394531 13.390625 -7.03125 13.390625 -5.375 C 13.390625 -3.71875 12.785156 -2.351562 11.578125 -1.28125 C 10.367188 -0.21875 8.832031 0.3125 6.96875 0.3125 C 5.039062 0.3125 3.476562 -0.21875 2.28125 -1.28125 Z M 5.15625 -7.203125 C 4.675781 -6.722656 4.4375 -6.113281 4.4375 -5.375 C 4.4375 -4.632812 4.664062 -4.03125 5.125 -3.5625 C 5.582031 -3.09375 6.191406 -2.859375 6.953125 -2.859375 C 7.679688 -2.859375 8.28125 -3.09375 8.75 -3.5625 C 9.21875 -4.039062 9.453125 -4.644531 9.453125 -5.375 C 9.453125 -6.113281 9.207031 -6.722656 8.71875 -7.203125 C 8.238281 -7.679688 7.648438 -7.921875 6.953125 -7.921875 C 6.234375 -7.921875 5.632812 -7.679688 5.15625 -7.203125 Z M 5.15625 -7.203125 "/></g></g></g><g fill="#000000" fill-opacity="1"><g transform="translate(54.680187, 35.339015)"><g><path d="M 7 -8.046875 C 6.289062 -8.046875 5.6875 -7.785156 5.1875 -7.265625 C 4.6875 -6.742188 4.4375 -6.117188 4.4375 -5.390625 C 4.4375 -4.648438 4.6875 -4.019531 5.1875 -3.5 C 5.6875 -2.988281 6.289062 -2.734375 7 -2.734375 C 7.332031 -2.734375 7.648438 -2.773438 7.953125 -2.859375 C 8.253906 -2.941406 8.472656 -3.023438 8.609375 -3.109375 L 8.796875 -3.234375 L 10.0625 -0.65625 C 9.957031 -0.582031 9.816406 -0.492188 9.640625 -0.390625 C 9.472656 -0.285156 9.078125 -0.144531 8.453125 0.03125 C 7.828125 0.21875 7.160156 0.3125 6.453125 0.3125 C 4.867188 0.3125 3.476562 -0.242188 2.28125 -1.359375 C 1.082031 -2.472656 0.484375 -3.804688 0.484375 -5.359375 C 0.484375 -6.921875 1.082031 -8.265625 2.28125 -9.390625 C 3.476562 -10.523438 4.867188 -11.09375 6.453125 -11.09375 C 7.160156 -11.09375 7.816406 -11.003906 8.421875 -10.828125 C 9.023438 -10.660156 9.453125 -10.492188 9.703125 -10.328125 L 10.0625 -10.078125 L 8.796875 -7.53125 C 8.335938 -7.875 7.738281 -8.046875 7 -8.046875 Z M 7 -8.046875 "/></g></g></g><g fill="#000000" fill-opacity="1"><g transform="translate(63.353212, 35.339015)"><g><path d="M 1.609375 -16.78125 C 2.046875 -17.21875 2.566406 -17.4375 3.171875 -17.4375 C 3.773438 -17.4375 4.289062 -17.21875 4.71875 -16.78125 C 5.15625 -16.34375 5.375 -15.820312 5.375 -15.21875 C 5.375 -14.625 5.15625 -14.109375 4.71875 -13.671875 C 4.289062 -13.234375 3.773438 -13.015625 3.171875 -13.015625 C 2.566406 -13.015625 2.046875 -13.234375 1.609375 -13.671875 C 1.179688 -14.109375 0.96875 -14.625 0.96875 -15.21875 C 0.96875 -15.820312 1.179688 -16.34375 1.609375 -16.78125 Z M 1.265625 -10.765625 L 1.265625 0 L 4.984375 0 L 4.984375 -10.765625 Z M 1.265625 -10.765625 "/></g></g></g><g fill="#000000" fill-opacity="1"><g transform="translate(68.05722, 35.339015)"><g><path d="M 5.109375 -13.9375 L 9.359375 -17.640625 L 11.28125 -15.21875 L 6.28125 -12.328125 Z M 12.15625 -4.875 L 4.34375 -4.875 C 4.34375 -4.113281 4.585938 -3.550781 5.078125 -3.1875 C 5.566406 -2.820312 6.097656 -2.640625 6.671875 -2.640625 C 7.273438 -2.640625 7.75 -2.71875 8.09375 -2.875 C 8.445312 -3.039062 8.847656 -3.363281 9.296875 -3.84375 L 11.984375 -2.5 C 10.867188 -0.625 9.007812 0.3125 6.40625 0.3125 C 4.78125 0.3125 3.382812 -0.242188 2.21875 -1.359375 C 1.0625 -2.472656 0.484375 -3.8125 0.484375 -5.375 C 0.484375 -6.945312 1.0625 -8.289062 2.21875 -9.40625 C 3.382812 -10.53125 4.78125 -11.09375 6.40625 -11.09375 C 8.113281 -11.09375 9.503906 -10.597656 10.578125 -9.609375 C 11.648438 -8.617188 12.1875 -7.207031 12.1875 -5.375 C 12.1875 -5.125 12.175781 -4.957031 12.15625 -4.875 Z M 4.453125 -6.9375 L 8.546875 -6.9375 C 8.460938 -7.488281 8.238281 -7.914062 7.875 -8.21875 C 7.519531 -8.519531 7.066406 -8.671875 6.515625 -8.671875 C 5.898438 -8.671875 5.410156 -8.507812 5.046875 -8.1875 C 4.679688 -7.863281 4.484375 -7.445312 4.453125 -6.9375 Z M 4.453125 -6.9375 "/></g></g></g><g fill="#000000" fill-opacity="1"><g transform="translate(79.082245, 35.339015)"><g/></g></g><g fill="#000000" fill-opacity="1"><g transform="translate(83.177245, 35.339015)"><g><path d="M 4.109375 -17.640625 L 8.375 -13.9375 L 7.203125 -12.328125 L 2.203125 -15.21875 Z M 1.984375 -9.421875 C 0.984375 -8.316406 0.484375 -6.96875 0.484375 -5.375 C 0.484375 -3.78125 0.984375 -2.429688 1.984375 -1.328125 C 2.992188 -0.234375 4.28125 0.3125 5.84375 0.3125 C 7.269531 0.3125 8.441406 -0.195312 9.359375 -1.21875 L 9.40625 -1.21875 L 9.40625 0 L 13.078125 0 L 13.078125 -10.765625 L 9.359375 -10.765625 L 9.359375 -9.75 C 8.441406 -10.644531 7.269531 -11.09375 5.84375 -11.09375 C 4.28125 -11.09375 2.992188 -10.535156 1.984375 -9.421875 Z M 5.125 -3.5625 C 4.664062 -4.03125 4.4375 -4.632812 4.4375 -5.375 C 4.4375 -6.113281 4.675781 -6.722656 5.15625 -7.203125 C 5.632812 -7.679688 6.234375 -7.921875 6.953125 -7.921875 C 7.648438 -7.921875 8.238281 -7.679688 8.71875 -7.203125 C 9.207031 -6.722656 9.453125 -6.113281 9.453125 -5.375 C 9.453125 -4.644531 9.21875 -4.039062 8.75 -3.5625 C 8.28125 -3.09375 7.679688 -2.859375 6.953125 -2.859375 C 6.191406 -2.859375 5.582031 -3.09375 5.125 -3.5625 Z M 5.125 -3.5625 "/></g></g></g><g fill="#000000" fill-opacity="1"><g transform="translate(95.882286, 35.339015)"><g/></g></g><g fill="#000000" fill-opacity="1"><g transform="translate(99.977285, 35.339015)"><g><path d="M 1.609375 -16.78125 C 2.046875 -17.21875 2.566406 -17.4375 3.171875 -17.4375 C 3.773438 -17.4375 4.289062 -17.21875 4.71875 -16.78125 C 5.15625 -16.34375 5.375 -15.820312 5.375 -15.21875 C 5.375 -14.625 5.15625 -14.109375 4.71875 -13.671875 C 4.289062 -13.234375 3.773438 -13.015625 3.171875 -13.015625 C 2.566406 -13.015625 2.046875 -13.234375 1.609375 -13.671875 C 1.179688 -14.109375 0.96875 -14.625 0.96875 -15.21875 C 0.96875 -15.820312 1.179688 -16.34375 1.609375 -16.78125 Z M 1.265625 -10.765625 L 1.265625 0 L 4.984375 0 L 4.984375 -10.765625 Z M 1.265625 -10.765625 "/></g></g></g><g fill="#000000" fill-opacity="1"><g transform="translate(104.681293, 35.339015)"><g><path d="M 1.265625 0 L 1.265625 -10.765625 L 4.984375 -10.765625 L 4.984375 -9.640625 L 5.015625 -9.640625 C 5.984375 -10.609375 7.015625 -11.09375 8.109375 -11.09375 C 8.890625 -11.09375 9.625 -10.929688 10.3125 -10.609375 C 11 -10.285156 11.515625 -9.785156 11.859375 -9.109375 C 12.953125 -10.429688 14.144531 -11.09375 15.4375 -11.09375 C 16.582031 -11.09375 17.566406 -10.769531 18.390625 -10.125 C 19.222656 -9.476562 19.640625 -8.46875 19.640625 -7.09375 L 19.640625 0 L 15.921875 0 L 15.921875 -6.09375 C 15.921875 -6.664062 15.757812 -7.144531 15.4375 -7.53125 C 15.125 -7.914062 14.65625 -8.109375 14.03125 -8.109375 C 13.476562 -8.109375 13.054688 -7.941406 12.765625 -7.609375 C 12.484375 -7.285156 12.332031 -6.890625 12.3125 -6.421875 L 12.3125 0 L 8.59375 0 L 8.59375 -6.09375 C 8.59375 -6.664062 8.429688 -7.144531 8.109375 -7.53125 C 7.796875 -7.914062 7.328125 -8.109375 6.703125 -8.109375 C 6.128906 -8.109375 5.695312 -7.925781 5.40625 -7.5625 C 5.125 -7.207031 4.984375 -6.785156 4.984375 -6.296875 L 4.984375 0 Z M 1.265625 0 "/></g></g></g><g fill="#000000" fill-opacity="1"><g transform="translate(123.728346, 35.339015)"><g><path d="M 12.34375 -9.4375 C 13.351562 -8.34375 13.859375 -6.992188 13.859375 -5.390625 C 13.859375 -3.796875 13.351562 -2.445312 12.34375 -1.34375 C 11.34375 -0.238281 10.0625 0.3125 8.5 0.3125 C 7.070312 0.3125 5.898438 -0.132812 4.984375 -1.03125 L 4.984375 5.453125 L 1.265625 5.453125 L 1.265625 -10.765625 L 4.9375 -10.765625 L 4.9375 -9.5625 L 4.984375 -9.5625 C 5.898438 -10.582031 7.070312 -11.09375 8.5 -11.09375 C 10.0625 -11.09375 11.34375 -10.539062 12.34375 -9.4375 Z M 9.1875 -3.5625 C 9.664062 -4.039062 9.90625 -4.648438 9.90625 -5.390625 C 9.90625 -6.140625 9.675781 -6.75 9.21875 -7.21875 C 8.757812 -7.6875 8.148438 -7.921875 7.390625 -7.921875 C 6.660156 -7.921875 6.0625 -7.679688 5.59375 -7.203125 C 5.125 -6.722656 4.890625 -6.117188 4.890625 -5.390625 C 4.890625 -4.648438 5.128906 -4.039062 5.609375 -3.5625 C 6.097656 -3.09375 6.691406 -2.859375 7.390625 -2.859375 C 8.109375 -2.859375 8.707031 -3.09375 9.1875 -3.5625 Z M 9.1875 -3.5625 "/></g></g></g><g fill="#000000" fill-opacity="1"><g transform="translate(136.433382, 35.339015)"><g><path d="M 1.984375 -1.328125 C 0.984375 -2.429688 0.484375 -3.78125 0.484375 -5.375 C 0.484375 -6.96875 0.984375 -8.316406 1.984375 -9.421875 C 2.992188 -10.535156 4.28125 -11.09375 5.84375 -11.09375 C 7.269531 -11.09375 8.441406 -10.644531 9.359375 -9.75 L 9.359375 -10.765625 L 13.078125 -10.765625 L 13.078125 0 L 9.40625 0 L 9.40625 -1.21875 L 9.359375 -1.21875 C 8.441406 -0.195312 7.269531 0.3125 5.84375 0.3125 C 4.28125 0.3125 2.992188 -0.234375 1.984375 -1.328125 Z M 5.15625 -7.203125 C 4.675781 -6.722656 4.4375 -6.113281 4.4375 -5.375 C 4.4375 -4.632812 4.664062 -4.03125 5.125 -3.5625 C 5.582031 -3.09375 6.191406 -2.859375 6.953125 -2.859375 C 7.679688 -2.859375 8.28125 -3.09375 8.75 -3.5625 C 9.21875 -4.039062 9.453125 -4.644531 9.453125 -5.375 C 9.453125 -6.113281 9.207031 -6.722656 8.71875 -7.203125 C 8.238281 -7.679688 7.648438 -7.921875 6.953125 -7.921875 C 6.234375 -7.921875 5.632812 -7.679688 5.15625 -7.203125 Z M 5.15625 -7.203125 "/></g></g></g><g fill="#000000" fill-opacity="1"><g transform="translate(149.138417, 35.339015)"><g><path d="M 7 -8.046875 C 6.289062 -8.046875 5.6875 -7.785156 5.1875 -7.265625 C 4.6875 -6.742188 4.4375 -6.117188 4.4375 -5.390625 C 4.4375 -4.648438 4.6875 -4.019531 5.1875 -3.5 C 5.6875 -2.988281 6.289062 -2.734375 7 -2.734375 C 7.332031 -2.734375 7.648438 -2.773438 7.953125 -2.859375 C 8.253906 -2.941406 8.472656 -3.023438 8.609375 -3.109375 L 8.796875 -3.234375 L 10.0625 -0.65625 C 9.957031 -0.582031 9.816406 -0.492188 9.640625 -0.390625 C 9.472656 -0.285156 9.078125 -0.144531 8.453125 0.03125 C 7.828125 0.21875 7.160156 0.3125 6.453125 0.3125 C 4.867188 0.3125 3.476562 -0.242188 2.28125 -1.359375 C 1.082031 -2.472656 0.484375 -3.804688 0.484375 -5.359375 C 0.484375 -6.921875 1.082031 -8.265625 2.28125 -9.390625 C 3.476562 -10.523438 4.867188 -11.09375 6.453125 -11.09375 C 7.160156 -11.09375 7.816406 -11.003906 8.421875 -10.828125 C 9.023438 -10.660156 9.453125 -10.492188 9.703125 -10.328125 L 10.0625 -10.078125 L 8.796875 -7.53125 C 8.335938 -7.875 7.738281 -8.046875 7 -8.046875 Z M 7 -8.046875 "/></g></g></g><g fill="#000000" fill-opacity="1"><g transform="translate(157.811436, 35.339015)"><g><path d="M 1.890625 -10.765625 L 1.890625 -14.78125 L 5.609375 -14.78125 L 5.609375 -10.765625 L 7.875 -10.765625 L 7.875 -7.9375 L 5.609375 -7.9375 L 5.609375 -4.515625 C 5.609375 -3.523438 5.890625 -3.03125 6.453125 -3.03125 C 6.585938 -3.03125 6.734375 -3.054688 6.890625 -3.109375 C 7.046875 -3.160156 7.164062 -3.21875 7.25 -3.28125 L 7.375 -3.359375 L 8.296875 -0.359375 C 7.492188 0.0859375 6.582031 0.3125 5.5625 0.3125 C 4.863281 0.3125 4.257812 0.191406 3.75 -0.046875 C 3.25 -0.296875 2.867188 -0.625 2.609375 -1.03125 C 2.347656 -1.445312 2.160156 -1.882812 2.046875 -2.34375 C 1.941406 -2.800781 1.890625 -3.285156 1.890625 -3.796875 L 1.890625 -7.9375 L 0.34375 -7.9375 L 0.34375 -10.765625 Z M 1.890625 -10.765625 "/></g></g></g></svg>